<?xml version="1.0" encoding="utf-8"?>
<!-- Generator: Adobe Illustrator 22.1.0, SVG Export Plug-In . SVG Version: 6.00 Build 0)  -->
<svg version="1.1" id="レイヤー_1" xmlns="http://www.w3.org/2000/svg" xmlns:xlink="http://www.w3.org/1999/xlink" x="0px"
	 y="0px" viewBox="0 0 1080 1080" style="enable-background:new 0 0 1080 1080;" xml:space="preserve">
<g>
	<path d="M97.8,201.3l4.5-51h34.7l-1,11.8h-21.7l-3.4,39.1H97.8z"/>
	<path d="M178.7,204.4c-2.6,2.9-3.9,4-8.4,7.8l-1.9,21.5c7.5-1.3,13.1-2.6,22.2-5l-1,11.1c-7.9,2.1-10.7,2.7-22.4,5
		c-7.1,1.4-7.5,1.5-13.4,2.4c-1.8,0.3-3.4,0.5-5,0.9c-2.2,0.3-4.1,0.7-5.1,1l-1.5-12.2c4-0.1,7.8-0.4,14.6-1.3l1.3-14.3
		c-7.6,4.8-12.9,7.5-23.2,11.6c-1.6-4.5-2.8-7.3-5.5-11.3c14.1-3.7,25.6-9.3,35.1-17.2h-19.8c-4.7,0-8.7,0.2-12.2,0.7l1-11.2
		c3,0.4,6,0.5,12,0.5h28.7l0.6-6.6h-20.4c-6.1,0-8.3,0.1-11.5,0.4l0.9-10.4c3,0.3,5.4,0.4,11.4,0.4h20.4l0.6-6.4H151
		c-5.5,0-8.8,0.1-11.7,0.5l1-11c3.2,0.4,6.8,0.7,12.2,0.7H177c0.4-4.5,0.4-6.5,0.1-9h12.9c-0.8,2.5-1,4.2-1.4,9h26.2
		c5.7,0,9.3-0.2,12.4-0.7l-1,11c-2.8-0.4-6.1-0.5-11.7-0.5h-26.8l-0.6,6.4h22c6.3,0,8.7-0.1,11.7-0.4l-0.9,10.4
		c-3.2-0.3-5.3-0.4-11.6-0.4h-22l-0.6,6.6h30.1c5.9,0,9.1-0.1,12-0.5l-1,11.2c-3.4-0.4-7.3-0.7-11.9-0.7h-24.2
		c1.6,4.3,3.6,8.2,7,12.9c5.6-4.1,10.5-8.7,13.2-12.1l9.9,6.5c-0.8,0.7-0.8,0.7-2.6,2.3c-3.3,3.2-8,7-13.3,10.9
		c6.7,5.4,12.6,8.6,21.8,11.8c-3.7,4-5.7,7-7.8,11.2c-13.6-6.1-22.6-12.9-29.2-22.1c-4.3-6-7.7-13.2-10.4-21.5H178.7z"/>
	<path d="M282.8,168.6c-4,0-6,0.1-9,0.4l1-11.1c2.8,0.4,5.4,0.5,9.4,0.5h15.4c3.9,0,6.4-0.1,9.3-0.5l-1,11.1
		c-2.6-0.3-4.7-0.4-8.3-0.4h-2.8L295,189h3.2c3,0,4.5-0.1,6.7-0.4l-0.9,10.5c-2.5-0.2-4.2-0.3-6.6-0.3h-3.2l-1.7,19.3
		c3.8-1.5,5.9-2.5,11.8-5.2l-0.9,10.8c-9.1,4.7-16.8,7.9-28.6,11.8c-3,1-4,1.4-5.6,2.1l-1.9-12c2.9-0.4,7.9-1.7,14-3.7l2-23.2h-3.8
		c-2.8,0-5,0.1-7.2,0.4l0.9-10.7c2.6,0.3,4.1,0.4,7.4,0.4h3.6l1.8-20.4H282.8z M316.6,215.6c-3.7,0-6.1,0.1-9.8,0.3
		c0.4-3.2,0.8-6.3,1.1-10.5l3.4-39c0.5-5.7,0.6-7.7,0.6-10.5c2.7,0.3,5,0.4,10.1,0.4h32c4.8,0,7.3-0.1,10-0.4
		c-0.5,2.5-0.9,5.4-1.4,10.5l-3.4,38.4c-0.4,4.6-0.6,7.7-0.5,11.2c-1.9-0.1-5-0.3-6.2-0.3H345l-1.8,20.8c-0.1,1.5,0.4,1.7,4.7,1.7
		c2.9,0,4.4-0.3,5-1.1c0.7-1,1.7-6.1,2.4-12.6c2.9,1.8,6,3.3,9.4,4.2c-2,11.3-3,14.6-5.4,16.6c-2.4,2.2-6.1,2.9-14.3,2.9
		c-7.5,0-10.5-0.5-12.1-2.1c-1.3-1.2-1.5-2.1-1.1-5.8l2.2-24.8h-5c-1.8,6.5-2.2,7.9-3.7,11c-3.5,7.2-8.7,13-15.7,17.4
		c-4.4,2.8-8.1,4.5-15.1,6.6c-1.2-3.5-2.4-5.7-5.7-9.6c9.5-2.2,16.2-5.4,21.4-10.7c4.3-4.1,6.6-8.6,7.8-14.8H316.6z M318.7,206h29.6
		l0.6-7.4h-29.6L318.7,206z M320.1,189.4h29.6l0.6-7.1h-29.6L320.1,189.4z M321.5,173.2h29.6l0.6-7.2h-29.6L321.5,173.2z"/>
	<path d="M448.1,223c-6,9-13.6,14-21,14c-11.3,0-18.4-11.1-17-26.5c1.5-17.2,11.5-32,27.1-39.8c7.6-3.9,15.6-5.7,25.9-5.7
		c22.7,0,38.2,16.1,36.3,37.6c-1.7,19-12.2,32.7-30.9,40.4c-3.7,1.5-6.6,2.4-8,2.4c-1.3,0-1.8-0.4-3-2.5c-1.6-2.8-3.5-4.9-6.2-6.8
		c22.9-5.8,33.9-16.3,35.5-33.9c0.8-9-2.4-16.6-8.7-21.4c-3.6-2.6-6.5-3.7-12.4-4.7C460.4,199.1,455.8,211.6,448.1,223z
		 M435.8,184.5c-7.8,6.4-12.8,15.5-13.7,25.8c-0.7,8.4,1.6,13.3,6.1,13.3c5.4,0,11.6-7.5,16.9-20.4c3.3-8.2,5.2-14.3,7.9-26.4
		C445.2,178.3,441.2,180.2,435.8,184.5z"/>
	<path d="M563,169.8c-4.3,0-10.1,0.2-14.3,0.7l1.1-12.4c4.2,0.4,8.5,0.7,13.9,0.7H630c6.1,0,10.6-0.2,13.9-0.7l-1.1,12.4
		c-4.1-0.4-9.1-0.7-13.5-0.7h-21.1c-2.4,4.1-3.8,6-8.4,11.6l-4.8,54.8c-0.4,4.9-0.6,9.2-0.4,13.2h-13.5c0.8-3.9,1.5-8.7,1.9-13.2
		l2.7-31.3c0.3-3.6,0.5-6.1,1-9.7c-4,4.7-9.6,9.8-16.5,15.2c-5.5,4.1-11.1,7.8-21.1,13.8c-1.3-3.8-2.9-6.4-6.3-10.8
		c14.2-7.1,24.4-14.2,35.1-24.2c7.5-7.1,11.3-11.6,16.5-19.5H563z M608,184.4c4.8,6.2,8.3,10,13.9,14.9c7.3,6.3,12.9,10,20.2,13.4
		c-3.4,3.9-5.5,6.7-8.2,11.4c-15-9.1-25.1-18.4-34.4-31.2L608,184.4z"/>
	<path d="M721.9,165.9c2.7-4.6,4.6-8.9,6-13.8l13,1.3c-2.3,4.9-4.1,8.4-6.4,12.5h24.1c6.1,0,9.4-0.1,13-0.4
		c-0.7,3.5-1.1,6.2-1.7,12.7l-5.1,58.5c-0.5,6.1-0.7,8.7-0.4,12h-12.1l0.5-5.2h-51.4l-0.5,5.2h-11.8c0.7-2.6,1.3-7.1,1.7-12.1
		l5.1-58.4c0.5-6.1,0.7-9.2,0.6-12.7c3.5,0.3,6.7,0.4,12.7,0.4H721.9z M702.4,232.9h51.4l1.1-12.6h-51.4L702.4,232.9z M704.4,210.2
		h51.4l1-11.8h-51.4L704.4,210.2z M706.3,188.3h51.4l1-11.7h-51.4L706.3,188.3z"/>
	<path d="M902.7,171.2c5.2,0,8.2-0.1,11.9-0.5c-0.7,3.4-1.1,6.5-1.5,10.5l-4.9,55.5c-0.4,4.2-0.6,8.8-0.5,12.9H896l0.5-5.2h-63.7
		l-0.4,5.1h-11.6c0.8-4.3,1.4-8.2,1.8-12.9l4.9-55.9c0.3-3.7,0.4-6.8,0.3-10c3.3,0.3,6.2,0.4,11.3,0.4h25.7l0.7-7.6
		c0.4-4.1,0.4-7.4,0.3-10.8h12.9c-0.7,3.5-1.2,6.6-1.6,10.9l-0.7,7.5H902.7z M835.6,211.9l-1.9,22.1h25.4l1.9-22.1H835.6z
		 M838.3,181.5l-1.8,20.4H862l1.8-20.4H838.3z M897.4,234l1.9-22.1h-26.6l-1.9,22.1H897.4z M900.2,201.9l1.8-20.4h-26.6l-1.8,20.4
		H900.2z"/>
	<path d="M1044.2,220.8c-3.5,2.8-3.5,2.8-8.5,7c-1.9,1.6-2.7,2.2-5.5,4c6.5,3.6,11.4,5.2,21.6,7.3c-3.7,3.7-5.2,5.9-7.6,10.7
		c-13.9-4.2-21.7-8.4-29.8-16l-0.7,7.8c-8.7,2.1-17.6,3.8-37.7,7.3c-1.8,0.3-2.3,0.4-4.2,0.8l-0.7-12c1,0.1,1.4,0.1,1.8,0.1
		c2.4,0,5.7-0.2,10.7-0.9l1.8-20.4h-10.8c-3,14-6.8,23.4-13.7,33.7c-2.7-3.8-4.8-6.2-8.5-9.5c4.6-6.2,7.2-12,9.6-20.1
		c3.1-10.5,5.6-26.7,7.5-48.9c0.7-8,0.9-11.6,0.8-15.8c3.5,0.4,7.7,0.5,13.6,0.5h56.7c5.7,0,9-0.1,12.1-0.4
		c-0.5,2.9-0.8,5.2-1.1,9.2l-0.7,8.2c-0.4,4.3-0.4,6.2-0.5,9.1c-3.1-0.2-7.1-0.3-11.4-0.3h-6.2l-0.6,7h6.2c6,0,7.6-0.1,10.1-0.4
		l-0.9,10.3c-3-0.2-6.4-0.3-10.3-0.3h-6l-0.7,8.2h9.2c5.8,0,9-0.1,11.8-0.5L1051,217c-3.4-0.3-7-0.5-11.5-0.5h-4.7L1044.2,220.8z
		 M995.3,183.6l0.1-1.3h-15.7c-1.2,11.4-2.1,18.5-3.1,24.7h16.6l0.7-8.2H990c-3.9,0-6.3,0.1-8.9,0.3l0.9-10.3
		c2.3,0.3,4.9,0.4,8.9,0.4h3.9L995.3,183.6z M1040.3,173.3l0.6-7.3h-59.8l-0.6,7.3H1040.3z M996.5,216.5l-1.7,18.9
		c6.6-1,6.6-1,18-3.3c-4.7-5.1-6.8-8.7-9.3-15.7H996.5z M1020.2,206.9l0.7-8.2h-16.2l-0.7,8.2H1020.2z M1021.7,189.2l0.6-7h-16.2
		l-0.6,7H1021.7z M1015,216.5c1.5,3.8,3.5,6.4,7.3,9.8c4.4-3,8.3-6.5,11.1-9.8H1015z"/>
	<path d="M110.5,337c-0.6,7.2-6.9,12.9-14.1,12.9c-7.2,0-12.4-5.8-11.8-12.9c0.6-7.2,6.9-12.9,14.1-12.9
		C105.8,324.1,111.1,329.9,110.5,337z"/>
	<path d="M318.3,334.9c-5,0-13.1,1.6-18.7,3.7c-11.9,4.5-20.2,12.6-20.9,20.5c-0.4,5,2.5,8.4,8.9,10c2.9,0.8,7.9,1.3,11.5,1.2
		c0.7,0,1,0,1.1,0c1.8,0,2.4,0.7,2.3,2.1c-0.3,3.6-1.4,8.6-2.1,10c-0.5,0.9-1.1,1.2-2.2,1.2c-6.6,0-14.8-1.7-20.3-4.3
		c-8-3.7-12.1-10.1-11.3-18.2c0.4-5.1,2.9-10.3,7-15c2.3-2.5,4-4,8.2-6.7c-20.3,6-30.5,9.8-37.5,14.1c-0.9,0.5-1.5,0.8-2,0.8
		c-1.2,0-2.1-1-3.4-3.7c-1.3-2.5-2.1-5.5-2-7.2c0.1-1,0.5-1.3,3.2-2.1c2.6-0.8,4.4-1.8,8.8-4.8c5.3-3.7,13.7-10.4,21-16.8
		c6-5.3,9.4-8.6,16.6-16.2c-6.4,0.8-23.7,3.7-26.3,4.3c-1.6,0.4-1.7,0.4-2,0.4c-1,0-1.4-0.4-1.7-1.5c-0.7-2.4-1.1-6.4-1.2-11
		c1.5,0.1,2.3,0.1,3.3,0.1c4.9,0,15.5-0.9,28.7-2.5c4.9-0.5,7.8-1.2,9.9-2.2c1.4-0.7,1.6-0.8,2.4-0.8c1.3,0,2.9,1.4,5.6,5.1
		c2,2.5,2.5,3.7,2.4,4.9c-0.1,1.2-0.6,1.7-2.1,2.7c-2.1,1.2-2.1,1.2-11.9,9.7c-8.1,7-17.7,14.6-28.4,22.5c15.7-4.6,24-6.7,40.9-10.4
		c3.8-0.8,7.4-1.7,11.7-3c0.6-0.2,1-0.3,1.3-0.3c0.9,0,1.3,0.4,1.7,1.4c1,2.5,1.9,7.8,1.8,9.8c-0.1,1.5-0.6,2.2-1.8,2.2H318.3z"/>
	<path d="M565.8,358.9c-6,9-13.6,14-21,14c-11.3,0-18.4-11.1-17-26.5c1.5-17.2,11.5-32,27.1-39.8c7.6-3.9,15.6-5.7,25.9-5.7
		c22.7,0,38.2,16.1,36.3,37.6c-1.7,19-12.2,32.7-30.9,40.4c-3.7,1.5-6.6,2.4-8,2.4c-1.3,0-1.8-0.4-3-2.5c-1.6-2.8-3.5-4.9-6.2-6.8
		c22.9-5.8,33.9-16.3,35.5-33.9c0.8-9-2.3-16.6-8.7-21.4c-3.6-2.6-6.5-3.7-12.4-4.7C578.1,335,573.4,347.5,565.8,358.9z
		 M553.5,320.4c-7.8,6.4-12.8,15.5-13.7,25.8c-0.7,8.4,1.6,13.3,6.1,13.3c5.4,0,11.6-7.5,16.9-20.4c3.3-8.2,5.2-14.3,7.9-26.4
		C562.8,314.2,558.9,316.1,553.5,320.4z"/>
	<path d="M826.6,354.2c0.2-2.7,0.4-4.9,0.6-6.3c0-0.2,0.3-2.3,0.7-6.6c-2.2,2.5-4.5,4.6-8.4,7.6c-1.4-5.7-1.9-7.2-3.9-11.1
		c10.8-7.2,21.7-18.6,26-27.1l8.8,6.1c-1,1.2-2,2.6-3.2,4.2c-0.3,0.4-0.3,0.4-1.3,1.7c-0.2,0.3-0.2,0.3-2,2.6
		c-0.2,0.2-1.1,1.3-2.7,3.3c-0.2,0.3-0.7,0.9-1.3,1.6l-3.7,42.3c-0.5,5.8-0.7,9.1-0.6,12.3h-12.2c0.7-3,1.2-6.2,1.7-11.5
		L826.6,354.2z M851.3,294.2c-2.3,2.7-4.8,5.4-7.2,8.2c-5,5.2-12.3,11-19.5,15.3c-1.5-4.1-2.5-6.2-5-9.7
		c10.6-5.5,18.1-12.3,23.1-20.4L851.3,294.2z M884.8,292.8c-1,1.1-1,1.1-3,3.6c-3,3.7-7.5,8.6-12.2,13.3c2.9,2.7,3.7,3.6,5.8,5.8
		c9.7-9.7,15-15.7,17.4-19.8l10.1,5.8c-0.8,0.8-1.8,1.7-4.2,4.5c-5.8,6.2-15.6,15.8-22.3,21.4c7.4-0.3,7.4-0.3,19.9-1.3
		c-1.6-2.6-2.3-3.6-4.8-7.2l9.1-5.3c5.3,7.3,8.9,13.3,14.1,22.9l-10,6.1c-1.9-4.2-2.4-5.4-3.7-8.3c-13.5,1.5-16.1,1.7-24.6,2.4
		c-1.7,2.7-2.2,3.5-3.6,5.5h16.1c3.4,0,6.6-0.2,8.4-0.4l6,6c-0.8,1-1.1,1.2-1.9,2.3c-4.5,5.5-10.2,11-16.7,16.1
		c7.8,3.7,16.6,6.2,27.2,7.5c-2.9,4.3-4,6.5-6.1,11.3c-12.2-2.3-23.4-6.4-31.5-11.7c-10.3,6.1-19.9,9.7-32.7,12.3
		c-1.5-5.1-2.1-6.6-4.3-10.1c11-1.7,19.3-4.3,28.4-9c-3.6-3.5-6.1-6.2-7.9-8.8c-4.4,3.5-7.2,5.2-13,8.3c-2.5-4.8-3-5.4-6.2-9
		c11.5-5,20.4-11.7,25.4-19.2c-15.3,0.9-15.8,1-18.8,1.4l-0.3-11.3c1.8,0.3,3.8,0.4,6.4,0.4c0.3,0,3.9-0.1,10.7-0.2
		c3.4-2.8,5.2-4.5,5.5-4.7c-5.4-5.8-8.9-8.7-17.9-15.4l8.1-8.2c2.6,2.1,3.3,2.6,5.1,4c5.6-5.7,10.7-12.1,12.3-15.5L884.8,292.8z
		 M866.2,351c2.8,4,5,6.4,9,9.3c4.9-3.3,7.7-5.7,11.1-9.3H866.2z"/>
	<path d="M1033.2,337l-4.5,50.9H994l1-11.8h21.8l3.4-39H1033.2z"/>
	<path d="M109.5,436.1c0.5-5.3,0.6-7.9,0.3-11.4h13.3c-0.7,3.4-1.2,6.1-1.6,11l-0.6,6.8h28.5c4.6,0,6.9-0.1,9.6-0.4
		c-0.6,2.9-0.9,5.1-1.2,9.2L155,483c-0.4,4.7-0.5,7.4-0.4,10.4h-12.4l0.5-6.2H117l-1.8,21.1c-0.6,6.3-0.6,9.5-0.4,13h-13.5
		c0.9-3.7,1.4-7.1,1.9-13l1.8-21.1H80.5l-0.5,6.2H67.5c0.7-3.4,1.1-6,1.5-10.4l2.8-31.8c0.3-3.9,0.4-5.8,0.4-9.1
		c2.9,0.3,5.2,0.4,9.4,0.4H109L109.5,436.1z M83.4,453.6l-2,22.6H106l2-22.6H83.4z M143.7,476.2l2-22.6H120l-2,22.6H143.7z"/>
	<path d="M317.9,505.6c5.1,0,8.9-0.2,13.2-0.7l-1.1,12.8c-4.4-0.5-8.2-0.8-13.1-0.8h-67.6c-4.5,0-8.9,0.2-13.4,0.8L237,505
		c4.3,0.4,7.9,0.7,13.3,0.7h3l4.2-48.3c0.4-4.8,0.6-8.9,0.4-12.5h13.4c-0.8,3.7-1.3,7.5-1.7,12.4l-4.2,48.4h17.2l5.9-67.3
		c0.5-5.9,0.6-8.4,0.4-12.1h13.4c-0.7,3.5-1.3,7.1-1.7,12.1l-1.8,20.2h18.8c4.8,0,8.5-0.2,12.2-0.7l-1.1,12.5
		c-3.9-0.3-7.8-0.5-12.1-0.5h-18.8l-3.1,35.8H317.9z"/>
	<path d="M441.3,489.6c0.3,0.5,0.3,1,0.3,1.5c-0.1,0.8-0.2,0.9-1.4,3.3c-2.6,5-5.9,12.8-7.7,18.7c-0.4,1.2-0.8,1.8-1.3,2.1
		c-0.6,0.2-4.3,0.8-5.5,0.8c-0.1,0-0.2,0-0.4,0c-0.5,0-1.3-0.1-2.2-0.1c-1.4,0-1.7-0.3-2-1.6c-1.4-7.1-1.8-21.6-0.8-32.6
		c1-12,2.5-19.3,6.9-35.7c1.6-5.9,2.4-9.1,3.2-12.7c4.5,0.9,8.3,2,11.4,3.5c1.8,0.8,2.3,1.3,2.2,2.4c-0.1,0.8-0.2,1.1-1.6,2.8
		c-4.1,5.8-10.1,28.8-11.5,44.3c-0.2,2.5-0.4,5.9-0.6,11.3c3.6-6.8,4.9-8.9,7.9-14.2C439,485.5,439.6,486.6,441.3,489.6z
		 M464.2,497.3c3.3,1.8,7.4,2.5,14.7,2.5c7,0,11.1-0.5,18-2.5c0.7-0.2,1.2-0.3,1.6-0.3c0.8,0,1.3,0.4,1.3,1.5
		c0.2,3.7,0.3,8,0.1,10.2c-0.1,1.1-0.4,1.4-2,1.8c-6,1.5-12,2.3-19.3,2.3c-10,0-16.1-1.2-20.9-4.2c-4.5-2.9-9-8.9-8.7-11.8
		c0.1-1.5,2.6-3.6,8.8-7.2C459.2,493.5,460.9,495.4,464.2,497.3z M461.4,441.8c2.3,0.5,9.3,1,14.6,1c7.2,0,14.4-0.5,21.2-1.7
		c0.6-0.1,0.6-0.1,1-0.1c0.8,0,1.1,0.3,1.2,1.2c0.1,1.1,0,5.9-0.2,8.8c-0.1,1.6-0.5,2.2-1.7,2.4c-4.5,0.9-12,1.4-19.8,1.4
		c-9.3,0-17.7-0.5-18.7-1.2c-0.5-0.3-0.7-1.1-0.5-3c0.3-2.9,1-7.3,1.3-8.2c0.1-0.4,0.5-0.7,1.1-0.7
		C461,441.7,461.2,441.7,461.4,441.8z"/>
	<path d="M610.1,435.1c0.4-4.7,0.5-7,0.3-9.8h12.1c-0.7,3-1,5.5-1.4,9.8l-0.5,5.9h7.4c4.3,0,7-0.1,10-0.5l-1,11.1
		c-2.6-0.2-3.9-0.3-8-0.3c-1.7,10.7-5.2,21.7-9.9,31.6c4.9,7,7,10.2,13,19.9L623,512c-3.7-7.6-5.4-10.5-10.4-18
		c-7,10.4-12.7,16.6-23.1,25.8c-2.3-4.6-3.8-6.5-7-9.7c10.3-7.5,16.6-14.3,23.7-25.7c-4.4-6.1-9.6-12.3-16-19.1l8.3-7.8
		c1.9,2.2,1.9,2.2,7.4,8.5c0.9,0.9,2.4,2.8,6,7.5c2.8-6.8,5-15,6-22.2h-19.2c-3.9,0-6.9,0.1-9.8,0.5l1-11.4
		c3.1,0.4,6.2,0.7,10.3,0.7h9.6L610.1,435.1z M642.3,463.4c6.1,9.2,8.8,14.2,12.7,24.1l-10,6.2c-3.9-11.4-6.8-17.5-12.4-25.2
		L642.3,463.4z M648.7,456.8c-4.2,0-7,0.1-9.8,0.5l1-11.5c2.9,0.4,5.1,0.5,9.8,0.5h13.2l0.7-8.3c0.5-6.1,0.6-9.3,0.4-12.4h12.5
		c-0.7,3.3-1.3,6.8-1.7,12.4l-0.7,8.3h1.3c4.3,0,7.1-0.2,9.7-0.7l-1,11.6c-0.9,0-0.9,0-2.4-0.2c-1-0.2-4.4-0.3-7.3-0.3h-1.3
		l-4.4,50.4c-0.5,5.4-1,7.2-2.6,8.9c-2.2,2.5-6.1,3.6-12.9,3.6c-4.2,0-8.3-0.1-12.3-0.3c-0.3-5.2-0.7-7.7-2.3-11.5
		c3.5,0.5,9.9,1.1,12.1,1.1c6,0,6.7-0.2,6.8-2.4l4.4-49.8H648.7z"/>
	<path d="M809.4,453.4c-23.9,1.5-33.3,2.5-40.3,4.3c-0.4,0.1-0.9,0.2-1.2,0.2c-0.8,0-1.4-0.5-1.6-1.4c-0.7-2.7-1-6.3-0.8-11.7
		c1.3,0,2.2,0,2.6,0c3.5,0,6.7-0.1,17.2-0.8c8.1-0.4,15-0.8,24.8-1.1c0.7-9.8,0.8-11.3,0.2-16.2c8.4,0.2,12.6,0.5,14,1.2
		c0.6,0.3,0.9,0.9,0.8,2c0,0.2-0.2,0.7-0.4,1.2c-1.2,2.4-1.7,4.8-2.5,11.5c15.9-0.4,18.3-0.4,29.2-0.4c2.9,0,3.4,0,3.7,0.3
		c0.4,0.4,0.5,2.1,0.1,5.8c-0.4,5-0.6,5.5-2,5.5c-0.1,0-0.2,0-0.4,0c-4.6-0.4-16.2-0.9-23.8-0.9c-2.5,0-2.5,0-7.9,0.1l-1.8,17.8
		c1.3,3.6,1.6,6.6,1.1,11.8c-1.2,13.6-7.1,24-18.3,31.7c-4.6,3.3-10.4,6.1-12.4,6.1c-1,0-1.5-0.3-2.3-1.2c-2.7-3.5-4.9-5.2-8.6-7.4
		c6.7-1.8,10.2-3.4,14.7-6c3.3-2.1,6.4-4.3,8.6-6.6c1.6-1.7,2.8-3.4,4.7-6.8c-3.4,3.3-6.2,4.5-10.2,4.5c-9.1,0-14.5-7-13.6-17.5
		c1-11.1,8.7-19.1,18.5-19.1c3.2,0,5.1,0.4,7.2,1.4L809.4,453.4z M794,478.8c-0.4,4.6,1.9,7.7,5.8,7.7c4.1,0,6.9-2.9,7.3-7.9
		c0.4-5.1-1.7-8-5.8-8C797.4,470.5,794.4,473.9,794,478.8z"/>
	<path d="M994.6,463.3c15.3,0,25.3,10.4,24,25.2c-0.9,10.1-7,19.2-16.4,24.6c-6.5,3.7-14.3,5.5-22.9,5.5c-13.8,0-21.4-5.5-20.5-15
		c0.8-8.6,8.5-14.7,18.7-14.7c9.2,0,15.5,4.7,19.1,14.2c5.9-4,8.5-8.3,9.1-14.1c0.8-9.3-5.3-15.4-15.7-15.4
		c-10.7,0-22.5,5.3-32.8,14.8c-1.9,1.7-3.7,3.6-5.9,6.1c-0.9,1.1-1.4,1.5-2.1,1.5c-2,0-9-7.6-8.8-9.6c0.1-1,0.6-1.5,3.1-3.3
		c2.7-2,6.5-5.1,11.5-9.5c11.4-10,19.9-18.4,32.5-32.3c-13.7,1.7-23,3.3-26.5,4.5c-0.6,0.1-0.9,0.2-1.2,0.2c-0.9,0-1.4-0.5-1.9-2.2
		c-1-3.3-1.4-6.8-1.3-11.6c2.9,0.4,5,0.5,7.3,0.5c5.2,0,14.1-0.8,25.6-2.1c4.1-0.4,5.4-0.8,8.5-2c1-0.4,1.6-0.5,2.2-0.5
		c1.5,0,2.9,1.3,5.4,5.7c1.8,2.8,2.3,4.2,2.3,5.1c-0.1,1.4-0.5,1.8-3,3.4c-2.1,1.2-3.3,2.2-6.1,4.6c-5.9,5.2-6,5.2-13.3,12.1
		c-5.2,4.9-5.8,5.4-10.5,9.8C982.4,464.9,988.1,463.3,994.6,463.3z M980.9,500.9c-1.5-1.1-3.3-1.6-5.4-1.6c-3.4,0-5.7,1.6-5.9,4.2
		c-0.3,3.2,2.9,5.1,8.1,5.1c2.4,0,4.5-0.2,7.3-1C984,504,983,502.4,980.9,500.9z"/>
	<path d="M67.6,576.4c0.4-4,0.5-7.7,0.4-11.2c3.1,0.4,6.6,0.5,11.6,0.5h50.5c5,0,8.2-0.1,11.2-0.5c-0.8,3.9-1.2,7.1-1.5,10.8
		l-5.9,67.3c-0.5,5.3-0.7,8.8-0.6,12.7h-12.5l0.6-6.3H73l-0.6,6.3H60c0.8-3.8,1.3-7.7,1.8-12.7L67.6,576.4z M74,638.7h48.5l2.3-26.6
		H76.3L74,638.7z M77.3,601.1h48.5l2.1-24.2H79.4L77.3,601.1z"/>
	<path d="M265.6,642.4c-2.9-0.3-5.3-0.4-8.8-0.4H252l-0.4,4.2c-0.5,5.7-0.6,7.8-0.3,11.2h-11.5c0.8-3.5,1.2-5.9,1.6-11.2l0.4-4.2
		h-6.3c-4.5,0-7.3,0.2-10.5,0.7l1-10.9c3,0.4,5.8,0.5,10.5,0.5h6.2l0.6-7.1h-3.3c-4.9,0-6.5,0-9.9,0.3c0.6-3.5,1-6.2,1.4-11
		l1.5-16.6c0.4-4.8,0.6-7.6,0.5-11.2c2.2,0.2,4.6,0.3,9.9,0.3h3.3l0.6-6.3h-6c-4.6,0-7.3,0.1-10.3,0.5l1-10.9
		c3.1,0.5,5.7,0.7,10.2,0.7h6l0.1-1.2c0.3-3.8,0.3-6.2,0.1-8.9h11.5c-0.8,2.8-1.1,4.9-1.4,9l-0.1,1.1h4.8c4.3,0,6.5-0.1,9.8-0.7
		l-0.9,10.8c-2.8-0.3-5.2-0.4-9.3-0.4h-5.2l-0.6,6.3h2.8c6.4,0,6.6,0,10-0.2c-0.5,2.8-0.8,4.9-1.2,10.4l-1.5,17.6
		c-0.5,5.5-0.6,7.7-0.6,10.5c-2.9-0.2-3.8-0.2-9.8-0.2h-3l-0.6,7.1h4.8c4.7,0,7.1-0.1,10-0.5l-0.4,4.5c1.9,0.2,2,0.2,3.8,0.2
		l0.5-5.3c0.4-5,0.5-6.8,0.5-9.6c2.4,0.3,3.7,0.3,10.1,0.3h12.2l0.4-5.1h-12.9c-5.3,0-6.1,0-8.9,0.2c0.4-2.4,0.4-2.5,0.8-6.7
		l0.7-7.7c0.4-4.1,0.4-4.6,0.4-6.8c2.5,0.2,4,0.2,8.9,0.2h26.5c4.9,0,7-0.1,8.9-0.3c-0.4,2.1-0.6,3.7-1,7.2l-0.7,7.5
		c-0.3,3.3-0.3,4.8-0.3,6.7c-2.7-0.2-4.5-0.2-8.9-0.2h-3l-0.4,5.1h3.7c4.5,0,7.2-0.1,9.9-0.4l-0.8,9.1c-3.2-0.2-4.9-0.3-9.9-0.3
		h-3.7l-0.5,6.2h6.1c5,0,8.1-0.2,11-0.7l-0.9,10.2c-3.4-0.4-6.5-0.5-11.1-0.5h-5.9l-0.2,1.7c-0.4,4.8-0.5,7.4-0.2,10.2h-11.8
		c0.8-3.2,1.1-5.5,1.5-10.2l0.2-1.7h-16.1c-4.6,0-7.5,0.1-10.8,0.5L265.6,642.4z M240.8,616.6h16.4l0.6-6.5h-16.4L240.8,616.6z
		 M242.1,601.7h16.4l0.6-6.3h-16.4L242.1,601.7z M282.8,583.2c2.3-4.7,2.3-4.7,3.1-7h-2.3c-3.2,0-4.9,0.1-7.6,0.3l0.8-9
		c3.2,0.4,5.5,0.5,9.2,0.5h2.8c1.5-4.3,1.7-5.3,2.2-7.8l11,0.7c-0.1,0.4-0.9,2.8-2.5,7.2h8.5c4.8,0,7.3-0.1,10.6-0.4
		c-0.6,3.2-0.9,5.4-1.3,9.9l-0.5,5.7c4.1,0,5.9-0.1,8.3-0.5l-0.8,9.5c-3.2-0.4-5.7-0.5-10.3-0.5h-32.5c-5.1,0-6.7,0.1-10,0.4
		l0.8-9.3c2.4,0.4,4.5,0.5,8.5,0.5H282.8z M293,636.4l0.5-6.2h-12l-0.5,6.2H293z M284.1,609.2h23l0.5-6.2h-23L284.1,609.2z
		 M306.7,583.2l0.6-7h-10.9c-1.4,3.5-1.8,4.6-2.9,7H306.7z"/>
	<path d="M441.4,630.7c-6,9-13.6,14-21,14c-11.3,0-18.4-11.1-17-26.5c1.5-17.2,11.5-32,27.1-39.8c7.6-3.9,15.6-5.7,25.9-5.7
		c22.7,0,38.2,16.1,36.3,37.6c-1.7,19-12.2,32.7-30.9,40.4c-3.7,1.5-6.6,2.4-8,2.4c-1.3,0-1.8-0.4-3-2.5c-1.6-2.8-3.5-4.9-6.2-6.8
		c22.9-5.8,33.9-16.3,35.5-33.9c0.8-9-2.3-16.6-8.7-21.4c-3.6-2.6-6.5-3.7-12.4-4.7C453.8,606.7,449.1,619.2,441.4,630.7z
		 M429.2,592.2c-7.8,6.4-12.8,15.5-13.7,25.8c-0.7,8.4,1.6,13.3,6.1,13.3c5.4,0,11.6-7.5,16.9-20.4c3.3-8.2,5.2-14.3,7.9-26.4
		C438.5,586,434.5,587.8,429.2,592.2z"/>
	<path d="M619.7,566.7c0.2-2.3,0.2-4.2,0-6.5h12.7c-0.6,2.2-0.9,4-1.1,6.5l-0.2,2.3h23.7c5.8,0,9.8-0.2,13-0.7l-1,11.2
		c-3.5-0.3-6.2-0.4-11.2-0.4h-4.8c-2.9,5.7-5,9.5-7.1,12.7h15.7c6,0,9.1-0.1,12-0.5l-1,11.2c-2.8-0.4-5.8-0.5-12-0.5h-70.1
		c-6.2,0-9,0.1-12,0.5l1-11.2c3.1,0.4,6.4,0.5,12.3,0.5H603c-0.9-3.7-2.7-9.2-4.3-12.7h-4.5c-4.9,0-7.4,0.1-10.8,0.4l1-11.2
		c3.1,0.4,6.8,0.7,12.2,0.7h22.8L619.7,566.7z M647.4,608c4.2,0,6.1-0.1,9.9-0.3c-0.6,3.2-0.9,5.8-1.3,9.3l-2.6,29.7
		c-0.4,4.2-0.4,7.3-0.3,10.3h-12l0.4-4.6h-45.5l-0.4,4.6h-12c0.7-3.3,1.2-6.3,1.6-10.3l2.6-29.7c0.3-3.3,0.4-6.1,0.4-9.3
		c3.6,0.2,5.6,0.3,9.9,0.3H647.4z M596.9,642.6h45.5l0.7-8.3h-45.5L596.9,642.6z M598.5,625.1H644l0.6-7.4h-45.5L598.5,625.1z
		 M632,591.9c2.6-3.9,5.1-8.6,6.8-12.7h-27.9c1.7,4.2,3.1,8.5,4.1,12.7H632z"/>
	<path d="M784.7,611.6c-3,0-5.7,0.1-8.1,0.3c0.4-2.3,0.7-4.8,1.1-8.7l2.1-24.5c0.4-4.3,0.5-5.4,0.4-8.5c2.7,0.3,3.8,0.3,8.2,0.3h3.3
		c2.1-3.9,3.2-6.6,4.4-10.7l11.5,1.3c-2.5,4.8-4.1,7.8-4.8,9.3h8.7c4.3,0,5.1,0,8.1-0.3c-0.6,2.7-0.7,3.7-1.1,8.6l-2.1,24.2
		c-0.4,4.6-0.5,6.7-0.4,8.8c-2.4-0.2-4.8-0.3-7.8-0.3h-6.4l-0.6,6.8h28c6.2,0,9.8-0.2,12.6-0.7l-1,11.3c-3.1-0.4-6.8-0.7-12.6-0.7
		H808c6,4.9,9.2,7,14.3,9.5c6.7,3.2,11.3,4.8,20.1,6.7c-3,3.6-4.9,6.3-7.3,10.7c-9.6-3-13.3-4.6-19.2-8.2
		c-6.9-4.2-12.3-8.9-16.3-13.9c-0.1,1.2-0.1,1.2-0.1,2.8c0,0.4-0.2,3.7-0.2,4l-0.5,6.1c-0.5,5.2-0.5,7.1-0.2,10.7h-12.8
		c0.8-3.5,1.3-6.2,1.7-10.8l0.5-5.9c0.2-2.1,0.3-3.4,0.8-6.8c-6.3,6.2-10.5,9.3-17,12.9c-6.1,3.5-13.1,6.4-20.8,8.9
		c-1.7-4.1-3.1-6.6-6-10.1c14.7-3.6,26.9-9.3,35.6-16.6h-18.9c-5.4,0-9.4,0.2-12.6,0.7l1-11.3c2.8,0.4,7,0.7,12.3,0.7h27.3l0.6-6.8
		H784.7z M776.5,600.5c-6.4,4-10.6,6.3-19.7,10.5c-1.9,1-1.9,1-4.4,2.2l-3.1-10.4c6.8-1.8,15.2-5.7,25.4-11.8L776.5,600.5z
		 M762.6,566.1c5.4,4.6,9.1,8.5,14.5,15.1l-8.3,7.9c-4.7-6.6-9.1-11.4-14.5-15.9L762.6,566.1z M788.1,602.5h18l0.6-7.3h-18
		L788.1,602.5z M789.5,586.5h18l0.6-6.7h-18L789.5,586.5z M824.3,591.4c9.9,5.2,15.1,8.4,21.2,12.5l-6.9,9
		c-7.2-5.7-13.2-9.6-20.8-13.5L824.3,591.4z M845.8,573.4c-8.4,8-13.6,12.5-19.3,16.6l-6.5-7.7c8.4-6.1,12.1-9.6,17.9-16.3
		L845.8,573.4z"/>
	<path d="M971.8,594.6c-2.1,1.7-3.3,2.7-6.1,4.6c3.7,4.6,5.6,7.7,8.1,13.4c4,9.5,5.6,18.5,4.7,27.7c-0.6,6.8-2.6,11.4-6,13.9
		c-2.4,1.7-6,2.5-12.1,2.5c-2.9,0-7.2-0.2-11.5-0.5c-0.2-5-0.7-7.1-2.2-11.2c5.2,1,9.7,1.5,13.2,1.5c5,0,6.9-2,7.4-7.6
		c0.2-2.1,0.1-4,0.1-6c-11.9,8.4-23.7,14.2-41.6,20.8c-1.9-4.2-3.3-6.5-5.7-9.6c16.7-4.3,34.4-12.5,45.7-21c-0.7-2.4-1.1-3.6-2-6
		c-9.5,6-23,12.1-36.3,16.3c-1.5-3.5-2.9-5.8-5.1-8.8c14.4-3.4,27-8.3,37.9-14.6c-1.3-2.3-2.2-3.5-3.8-5.5
		c-7.2,3.9-14.7,6.8-25.6,10c-1.4-3.5-2.3-5-4.8-8.8c9.4-2,12-2.6,17.6-4.6c5.8-2.1,9.8-3.9,13.8-6.5h-7.3c-3.8,0-7.1,0.2-10.3,0.5
		l0.9-10.5c2.7,0.4,4.8,0.5,10.2,0.5h42.8c6.1,0,7.7-0.1,10.4-0.4l-0.9,10.4c-3.2-0.4-6.5-0.5-10.3-0.5h-7.3c0.6,5.5,1.6,10,3.7,16
		c5.8-4,10-7.8,14.9-13.3l9.1,7.6c-2.6,2-3.4,2.6-6.3,4.9c-5.9,4.8-8.6,6.8-13.5,10c5,8.7,12.1,15.5,22.5,21.8
		c-2.9,2.5-5.5,5.4-9.1,10c-8.8-7-12.6-10.5-16.6-16.1c-7.8-10.7-12.8-24.7-14.9-41H971.8z M967.7,566.6c0.2-2.4,0.2-4.2-0.1-6.3
		h12.8c-0.6,2-0.9,3.7-1.1,6.2l-0.2,2.3h28.9c5,0,8.2-0.1,11.6-0.4c-0.5,2.2-0.7,3.9-1,7.3l-0.7,8.3c-0.3,3.2-0.3,5-0.2,7.4h-11.3
		l1.1-12.5h-68.2l-1.1,12.5h-11.4c0.5-2.3,0.9-4.3,1.2-7.5l0.7-8.2c0.3-3,0.2-5.2,0.2-7.3c3.3,0.3,6.4,0.4,11.5,0.4h27.1
		L967.7,566.6z"/>
	<path d="M61.5,745.5c-6.2,5.8-8.1,7.4-16.4,13.3c-1.8-4.7-3.1-6.8-6.2-10.2c7.3-4.5,12.7-8.5,18.9-14.2c5.8-5.3,9.2-9.3,13.8-16.4
		H56.9c-5.2,0-8.9,0.2-12.6,0.7l1-11.6c3.5,0.4,7.3,0.7,12.4,0.7h19.7c2-4.2,3.3-7.8,4-11.3l12.8,1.5c-0.8,1.5-1.1,2.1-2.7,5.9
		c-0.4,0.8-0.7,1.4-1.9,3.9H127c5.1,0,8.8-0.2,12.3-0.7l-1,11.6c-3.3-0.4-7.2-0.7-12.2-0.7H84.2c-2.2,3.6-3.6,5.7-5.9,8.8h35.5
		c5.2,0,8.2-0.1,11-0.4c-0.6,3.3-1,6.5-1.5,11.8l-3.8,43.6c-0.4,4-1.9,6.8-4.8,8.5c-2.1,1.2-5.9,1.7-12.3,1.7c-2.6,0-3.3,0-9.5-0.3
		c0-4.8-0.5-7.1-1.8-11c5.9,0.8,8.7,1,12.1,1c4.5,0,5.1-0.4,5.4-3l0.7-7.9H70.5l-0.8,8.9c-0.5,5.8-0.7,9.2-0.6,13H56.7
		c0.8-3.8,1.3-7.8,1.8-13.2L61.5,745.5z M72,753.5l-0.7,7.8h38.9l0.7-7.8H72z M112.4,736.6H73.4l-0.7,7.6h38.9L112.4,736.6z"/>
	<path d="M254.8,780.5c7.8-9.8,12-17.9,14.8-28.9l10.5,2.6c-3.7,12.9-8.1,22.3-15.3,32.7L254.8,780.5z M303.2,706
		c0.4-4.5,0.5-6.7,0.2-9.5h13c-0.7,2.8-1.1,5.2-1.5,9.5l-0.3,3.3h28.3c5.2,0,9.3-0.2,12.3-0.7l-1,11.8c-3.7-0.3-7.6-0.5-12.2-0.5
		h-28.3l-1.2,13.2h23.2c5.1,0,8.1-0.1,11.1-0.5l-1,11.2c-3.3-0.4-5.9-0.5-11.1-0.5h-56.4c-5.1,0-7.8,0.1-11.2,0.5l1-11.2
		c3,0.4,6,0.5,11.1,0.5h21.6l1.2-13.2h-26.7c-5,0-8.9,0.2-12.2,0.5l1-11.8c3,0.4,6.9,0.7,12.1,0.7h26.7L303.2,706z M296.9,748.1
		c-0.7,2.6-1,4.7-1.4,9.9l-1.6,18.5c-0.3,3.4,0.8,3.7,11.2,3.7c9.9,0,12.2-0.3,13.4-1.8c1.2-1.5,1.8-4,2.7-11.8
		c3.4,2.2,5.6,2.9,10.9,3.7c-2.7,19.3-4.6,20.8-29.5,20.8c-17.5,0-20.9-1.7-20.2-10.5l2-22.4c0.4-4.2,0.5-6.8,0.3-9.9H296.9z
		 M312.5,768.8c-3.7-6.3-7.9-11.3-14.4-17.3l8.5-6.3c6.5,5.8,10,9.7,14.7,16.3L312.5,768.8z M340.5,785.2c-3.1-12-7-21.7-11.8-29.6
		l10.2-4.5c4.3,6.8,8.6,16.3,12.8,28L340.5,785.2z"/>
	<path d="M504.5,761.3c0.3,0.5,0.3,1,0.3,1.5c-0.1,0.8-0.2,0.9-1.4,3.3c-2.6,5-5.9,12.8-7.7,18.7c-0.4,1.2-0.8,1.8-1.3,2.1
		c-0.6,0.2-4.3,0.8-5.5,0.8c-0.1,0-0.2,0-0.4,0c-0.5,0-1.3-0.1-2.2-0.1c-1.4,0-1.7-0.3-2-1.6c-1.4-7.1-1.8-21.6-0.8-32.6
		c1-12,2.5-19.3,6.9-35.7c1.6-5.9,2.4-9.1,3.2-12.7c4.5,0.9,8.3,2,11.4,3.5c1.8,0.8,2.3,1.3,2.2,2.4c-0.1,0.8-0.2,1.1-1.6,2.8
		c-4.1,5.8-10.1,28.8-11.5,44.3c-0.2,2.5-0.4,5.9-0.6,11.3c3.6-6.8,4.9-8.9,7.9-14.2C502.2,757.3,502.8,758.4,504.5,761.3z
		 M527.4,769c3.3,1.8,7.4,2.5,14.7,2.5c7,0,11.1-0.5,18-2.5c0.7-0.2,1.2-0.3,1.6-0.3c0.8,0,1.3,0.4,1.3,1.5c0.2,3.7,0.3,8,0.1,10.2
		c-0.1,1.1-0.5,1.4-2,1.8c-6,1.5-12,2.3-19.3,2.3c-10,0-16.1-1.2-20.9-4.2c-4.5-2.9-9-8.9-8.7-11.8c0.1-1.5,2.6-3.6,8.8-7.2
		C522.4,765.2,524.1,767.2,527.4,769z M524.6,713.6c2.3,0.5,9.3,1,14.6,1c7.2,0,14.4-0.5,21.2-1.7c0.6-0.1,0.6-0.1,1-0.1
		c0.8,0,1.1,0.3,1.2,1.2c0.1,1.1,0,5.9-0.2,8.8c-0.1,1.6-0.5,2.2-1.7,2.4c-4.5,0.9-12,1.4-19.8,1.4c-9.3,0-17.7-0.5-18.7-1.2
		c-0.5-0.3-0.7-1.1-0.5-3c0.3-2.9,1-7.3,1.3-8.2c0.1-0.4,0.5-0.7,1.1-0.7C524.2,713.5,524.4,713.5,524.6,713.6z"/>
	<path d="M745.9,735.1c-0.5,8.2-0.6,12.4-0.5,23.3c8.9,2.9,13.1,4.8,19.2,8.3c8.2,4.9,12.2,8.2,12.1,9.7c-0.1,1.3-1.7,3.8-4.6,7.4
		c-1.8,2.4-3.1,3.5-4,3.5c-0.5,0-1-0.2-1.7-1c-7.1-7.4-12.9-11.4-21.7-15.1c-0.8,6.6-2.3,10.1-5.7,13.4c-4.1,3.8-10.9,5.9-19.5,5.9
		c-14.2,0-22.4-6.3-21.5-16.6c1-11,11.1-17.9,26-17.9c3.6,0,6.7,0.2,9.4,0.5c0.5-17.8,0.9-26.4,2.2-42.4c0.4-6.3,0.6-10.1,0.4-15.2
		c5,0.1,9.9,0.7,12.8,1.4c1.7,0.5,2.3,1.1,2.2,2.3c0,0.5-0.2,0.9-0.6,1.7c-1.4,2.8-2.2,7-3.5,19c0.9,0,0.9,0,4.3-0.2
		c5.2-0.3,12.8-1.6,21.2-3.9c0.3-0.1,0.6-0.1,0.9-0.1c0.7,0,0.9,0.2,1.2,1.3c0.9,2.6,1.6,7.9,1.4,9.8c-0.1,0.9-0.5,1.2-1.5,1.5
		c-8.5,2-20.4,3.6-26.8,3.6h-1H745.9z M721.9,766.4c-7.4,0-12.1,2.5-12.4,6.6c-0.3,3.8,3.2,5.8,10,5.8c8.4,0,12.3-2.9,12.9-9.8
		c0-0.3,0.1-0.9,0.1-0.9C729,766.9,726,766.4,721.9,766.4z"/>
	<path d="M970.8,735c15.3,0,25.3,10.4,24,25.2c-0.9,10.1-7,19.2-16.4,24.6c-6.5,3.7-14.3,5.5-22.9,5.5c-13.8,0-21.4-5.5-20.5-15
		c0.8-8.6,8.5-14.7,18.7-14.7c9.2,0,15.5,4.7,19.1,14.2c5.9-4,8.5-8.3,9.1-14.1c0.8-9.3-5.3-15.4-15.7-15.4
		c-10.7,0-22.5,5.3-32.8,14.8c-1.9,1.7-3.7,3.6-5.9,6.1c-0.9,1.1-1.4,1.5-2.1,1.5c-2,0-9-7.6-8.8-9.6c0.1-1,0.6-1.5,3.1-3.3
		c2.7-2,6.5-5.1,11.5-9.5c11.4-10,19.9-18.4,32.5-32.3c-13.7,1.7-23,3.3-26.5,4.5c-0.6,0.1-0.9,0.2-1.2,0.2c-0.9,0-1.4-0.5-1.9-2.2
		c-1-3.3-1.4-6.8-1.3-11.6c2.9,0.4,5,0.5,7.3,0.5c5.2,0,14.1-0.8,25.6-2.1c4.1-0.4,5.4-0.8,8.5-2c1-0.4,1.6-0.5,2.2-0.5
		c1.5,0,2.9,1.3,5.4,5.7c1.8,2.8,2.3,4.2,2.3,5.1c-0.1,1.4-0.5,1.8-3,3.4c-2.1,1.2-3.3,2.2-6.1,4.6c-5.9,5.2-6,5.2-13.3,12.1
		c-5.2,4.9-5.8,5.4-10.5,9.8C958.6,736.6,964.3,735,970.8,735z M957.1,772.6c-1.5-1.1-3.3-1.6-5.4-1.6c-3.4,0-5.7,1.6-5.9,4.2
		c-0.3,3.2,2.9,5.1,8.1,5.1c2.4,0,4.5-0.2,7.3-1C960.2,775.8,959.3,774.1,957.1,772.6z"/>
	<path d="M45.5,843.4c0.4-5.1,0.4-7.3,0.3-10.7H58c-0.7,3.4-1,5.8-1.5,10.5l-0.8,8.9h2.7c2.7,0,3.9-0.1,6-0.3l-1,10.9
		c-2-0.2-3.6-0.3-5.8-0.3h-2.8l-1.4,16.2c4.5-1.4,5.6-1.8,10.2-3.5l-1,10.4c-4.6,1.6-5.5,2-10.1,3.6l-2.5,29c-0.4,4.1-1.6,6.7-3.6,8
		c-2.3,1.3-6.6,2.2-11.3,2.2c-1.6,0-3.1-0.1-6.7-0.3c0.1-4.6-0.3-7.1-1.3-10.8c3.9,0.5,6.5,0.8,8.7,0.8c2.6,0,3.3-0.7,3.5-3.2
		l1.9-22.1c-4.6,1.4-5,1.5-7.4,2.2c-1.8,0.5-3.4,1.1-4.5,1.5l-1.2-11.8c3.2-0.2,3.2-0.2,14.1-2.9l1.7-19.3h-5.2
		c-2.7,0-4.9,0.1-7.5,0.4l1-11.2c2.6,0.4,4.6,0.5,7.6,0.5h5.1L45.5,843.4z M83,875.6c-1.9,18.8-4,28-8.5,36.1
		c-3.8,6.8-7.9,11.3-16.3,17.6c-2.1-3.5-4.4-6.5-7.4-9.3c6.6-4.1,9.7-7.1,13-11.8c4.5-6.7,7.1-16.8,8.6-34.1c0.4-5,0.5-6.4,0.3-9.1
		c2.4,0.2,5.2,0.3,9.4,0.3h18.7c4.6,0,6.9-0.1,9.4-0.3c-0.4,2.2-0.8,4.9-1.2,9.5l-3.5,40.2c-0.1,1.5,0.5,2,3.1,2
		c2.3,0,3.2-0.4,3.6-2c0.8-2.5,1.6-8.3,2.6-18.7c3.5,1.7,6.4,2.8,9.5,3.7c-3,24.9-4.8,27.5-18.3,27.5c-10,0-12.6-1.7-12-7.9
		l3.8-43.5H83z M89.2,841.1c0.3-3.6,0.3-6.1,0.2-8.2h12.4c-0.6,1.7-0.9,4.2-1.3,8.2l-0.6,6.5h15.3c5.1,0,8.8-0.2,11.9-0.7l-1,11.6
		c-3.3-0.3-7.1-0.5-11.7-0.5h-37c-4.6,0-7.9,0.1-11.6,0.5l1-11.6c2.9,0.4,6.6,0.7,11.8,0.7h9.9L89.2,841.1z"/>
	<path d="M244.8,928.9c0.6-3,1.1-6.4,1.4-10.2l1.3-14.9c0.3-3.6,0.4-6.2,0.3-8.8c2.5,0.2,3.7,0.3,6.9,0.3h14c3.3,0,3.9,0,7-0.2
		c-0.4,2.3-0.5,3.3-1,8.5l-1.3,14.9c-0.3,3.5-0.4,5.9-0.4,8.5h-9l0.3-3.3H255l-0.5,5.2H244.8z M280.8,860.7
		c-2.5-0.2-3.8-0.3-7.7-0.3h-16.7c-4,0-5.6,0.1-7.7,0.3l0.9-10.4c2.4,0.3,4.1,0.4,7.7,0.4h16.3c4.2,0,5.6-0.1,8.2-0.4L280.8,860.7z
		 M250.3,880c2,0.2,3.6,0.3,7.4,0.3H269c4,0,5.4-0.1,7.7-0.3l-0.9,9.8c-2.6-0.3-3.7-0.3-7.7-0.3h-11.4c-3.9,0-5,0-7.4,0.3L250.3,880
		z M251.5,865.5c2.2,0.2,3.4,0.3,7.4,0.3h11.4c3.8,0,5.4-0.1,7.7-0.3l-0.9,9.8c-2.7-0.3-3.8-0.3-7.7-0.3h-11.4
		c-3.8,0-5.4,0.1-7.4,0.3L251.5,865.5z M253.9,835.4c2.1,0.3,4.1,0.4,7.4,0.4h12.6c3.4,0,5.2-0.1,7.4-0.4l-0.9,10.4
		c-2.2-0.2-3.8-0.3-7.4-0.3h-12.6c-3.6,0-5.3,0.1-7.4,0.3L253.9,835.4z M255.8,914.7h9.3l0.9-10.8h-9.3L255.8,914.7z M337.8,902.1
		c-2.5,2.6-9,8.9-10.9,10.5c1.8,3,3.4,4.6,4.7,4.6c1.6,0,2.8-2.7,4.2-9.2c2.4,2.4,4.5,4,7.2,5.1c-1.5,6-2.5,8.7-4.2,11.2
		c-1.6,2.4-3.8,3.6-6.3,3.6c-5,0-9.3-2.9-13.3-9.1c-5.4,3.7-8.9,5.8-14.7,8.6c-1.8-3.5-3-5.4-5.4-8.3c6.3-2.5,11-4.9,16.2-8.4
		c-1.8-4.7-2.5-8.3-3.1-14.1h-13.2l-0.4,4.9c3.6-0.7,6.4-1.2,11.1-2.3l-0.6,8.3c-1.7,0.3-1.7,0.3-11.2,2.5l-0.8,9
		c-0.3,3.8-1.3,6.1-3.4,7.5c-2,1.4-4.4,1.8-9.9,1.8c-1.6,0-2.7,0-5.3-0.2c0-3.7-0.3-6.2-1.1-9c3.4,0.5,4.9,0.7,7.3,0.7
		c2.2,0,2.9-0.5,3-2.3l0.5-5.8c-6.1,1.1-9.5,1.7-10.5,2l-0.6-9.3c0.4,0,0.8,0,0.9,0c2.2,0,5.7-0.4,11-1.2l0.6-6.5h-3.8
		c-3.2,0-5.6,0.1-7.8,0.4l0.8-9.6c2.1,0.3,3.5,0.4,7.9,0.4h3.6l0.3-3.8c-2.3,0.3-4.4,0.5-7.8,0.9c-0.4-2.5-1.3-4.9-2.5-6.7
		c11.1-0.5,19.6-2.2,24.9-4.9l4.8,6.3c-0.7,0.2-1,0.3-1.3,0.4c-3.2,1.1-4.3,1.4-8.5,2.3l-0.5,5.5h12.1c-0.1-1.8,0-2.9,0-5.1
		c0.2-4.2,0.1-5.2,0-7.8H322c-0.3,1.5-0.6,2.8-0.7,4.3c-0.2,1.8-0.3,5.1-0.3,8.6h11.5c4.5,0,6.2-0.1,9-0.7l-0.9,9.9
		c-2.4-0.4-4.3-0.5-8.9-0.5h-10.3c0.5,3.7,0.9,5.1,1.7,7.9c3.9-3.4,5.3-4.8,7.4-7.8L337.8,902.1z M298.5,841c-1.2-2.9-2-4.6-3.8-7.4
		L305,831c2,3.9,2.7,5.2,4.5,10h9.3c2.1-3.3,3.6-5.9,5.3-10l10.4,2.4c-1.5,2.7-3.2,5.3-4.8,7.6h4.9c4.2,0,6.1-0.1,8.6-0.5l-0.8,9
		c-3-0.3-5-0.4-8.6-0.4h-16.6L317,853h13c3.7,0,6-0.1,8.5-0.4l-0.7,8.4c-2.7-0.3-5.2-0.4-8.4-0.4h-13l-0.4,4h18.2
		c4.9,0,6.5-0.1,9-0.5l-0.8,9c-2.4-0.3-4.1-0.4-8.8-0.4h-43.9c-4.9,0-6.5,0.1-9,0.4l0.8-8.9c2.5,0.3,4,0.4,8.9,0.4h15.9l0.4-4H295
		c-4.2,0-6.1,0.1-8.5,0.4l0.7-8.4c2.5,0.3,4.9,0.4,8.4,0.4h11.5l0.3-3.9h-14.2c-3.4,0-5.9,0.1-8.6,0.4l0.8-9
		c2.5,0.4,4.4,0.5,8.5,0.5H298.5z M329.9,873.3c3.7,2.7,5.9,4.8,9.2,8.3l-7.3,5.1c-2.6-3.6-4.6-5.7-9-9L329.9,873.3z"/>
	<path d="M498.1,869c-1-4.8-1.2-7.7-1.3-21.1c0-5.2-0.2-7.8-0.9-11.5c6.6,0.1,10.8,0.4,13.7,1.2c1.6,0.4,2.3,1.2,2.2,2.4
		c0,0.4-0.2,1-0.5,1.8c-1,2.6-1.5,4.6-1.7,7.4c-0.5,5.3-0.1,14,0.7,17.8c0.5,2.1,1.1,2.8,2.3,2.8c2.6,0,12.6-5,18.2-9
		c1.5-1.1,1.7-1.2,2.3-1.2c1,0,1.9,0.8,3.3,2.8c2.4,3.7,4.2,7.7,4.1,9.2c-0.1,1.2-0.9,2-2.8,2.5c-6.9,1.8-18.4,6.2-26.2,9.8
		c-13.8,6.5-20.3,12.5-20.9,19.2c-0.6,6.6,4.7,9.3,18.7,9.3c8.2,0,15.6-0.8,25.8-2.4c0.4-0.1,1.2-0.2,1.4-0.2c0.9,0,1.4,0.4,1.7,1.3
		c0.2,1.1,0.4,7.7,0.2,10.3c-0.1,1.5-0.6,2.1-2.1,2.5c-2.4,0.5-15.7,1.3-23.9,1.3c-13.9,0-23-1.8-28.4-5.8
		c-4.6-3.4-6.7-8.7-6.2-15.2c0.4-5,2.2-9.5,5.6-13.8c4.3-5.7,8.7-9.2,18.3-14.7C499.5,873.9,498.8,872.4,498.1,869z"/>
	<path d="M701,902.3c-3.1,12.1-7.1,19.5-15.2,27.4c-2.9-3.4-5.6-5.7-9.8-8.3c10-7.7,14.7-19,16.5-39.9c0.4-4.3,0.5-6.5,0.4-9.1
		c3.4,0.4,4.7,0.4,10.4,0.4H758c5.9,0,7.2,0,10.6-0.4c-0.6,2.7-0.9,5-1.3,9.5l-1.3,15.2c-0.4,4.9-0.5,7.5-0.4,10.7h-12.3l0.5-5.4
		H701z M726.4,840.6c0.3-3.9,0.4-5.9,0.2-8.4h13c-0.6,2.2-0.9,4.2-1.3,8.4l-0.1,0.7h29.1c5.7,0,9.7-0.2,12.4-0.7l-1,11.1
		c-3.5-0.4-6.8-0.5-12.1-0.5h-29.3l-0.6,6.5h24.3c5.4,0,8.6-0.1,11-0.5l-0.9,10.5c-3.2-0.3-6.5-0.4-11.3-0.4h-58.3
		c-4.7,0-7.6,0.1-11,0.4l0.9-10.5c2.4,0.4,5.5,0.5,10.8,0.5h22.4l0.6-6.5h-26.5c-5.3,0-9,0.2-12.4,0.5l1-11.1
		c2.7,0.4,6.7,0.7,12.6,0.7h26.3L726.4,840.6z M722.7,892.6l0.9-10.2H704c-0.4,4.5-0.7,6.8-1.3,10.2H722.7z M754.7,892.6l0.9-10.2
		h-20.9l-0.9,10.2H754.7z"/>
	<path d="M905.7,849.8c0.4-5,0.5-7.5,0.5-10.8c3,0.2,5.3,0.3,11.4,0.3H934c4.1,0,6.3-0.1,9.1-0.3c-0.5,2.5-0.7,4.7-1.2,9.6
		l-4.1,47.2c-0.5,5.5-0.8,8.6-0.7,10.8h-10.8l0.3-3.9h-14.7l-0.7,7.7h-11.5c0.7-3.4,1.3-7.2,1.7-12.4L905.7,849.8z M912.7,892.6
		h14.8l1.5-17.5h-14.8L912.7,892.6z M915.1,865.4h14.8l1.4-15.8h-14.8L915.1,865.4z M954.3,895.6c-1.5,5.5-4,11.6-6.8,16.8
		c-3.7,6.6-7.6,11.1-14.4,17c-2.4-3.5-4.3-5.4-8.5-8.5c8.7-6.3,12.8-11.4,16.7-20.8c3.7-8.9,5.5-18.5,7.2-37.5
		c1.2-13.9,1.7-21.7,1.6-26.1c3.3,0.3,5.9,0.4,11.5,0.4h22.5c5.8,0,8.4-0.1,11.3-0.4c-0.6,2.8-0.9,5.9-1.4,11.5l-5.9,67.8
		c-0.4,5.1-1.8,8-4.5,9.7c-2.4,1.5-5.2,2-11.6,2c-2.9,0-4.7,0-8.5-0.2c-0.1-5-0.5-7.8-1.8-11.6c4.7,0.7,8.3,1,10.7,1
		c3.6,0,4.4-0.5,4.6-3.2l1.6-17.9H954.3z M958.7,870.9c-0.7,5.1-1.2,9-2.1,14.5h22.8l1.3-14.5H958.7z M982.7,847.4H961l-1.2,13.7
		h21.7L982.7,847.4z"/>
</g>
</svg>
